<svg width="30" height="31" viewBox="0 0 30 31" fill="none" xmlns="http://www.w3.org/2000/svg">
<path d="M28.1667 30.5C24.8611 30.5 21.5278 29.7313 18.1667 28.1939C14.8056 26.6565 11.7083 24.4751 8.875 21.6496C6.04167 18.8241 3.85417 15.7354 2.3125 12.3836C0.770833 9.03179 0 5.70768 0 2.41127C0 1.89418 0.175931 1.4602 0.527792 1.10934C0.879625 0.758451 1.31481 0.583008 1.83333 0.583008H7.97221C8.3611 0.583008 8.69906 0.7192 8.98608 0.991583C9.27314 1.26399 9.46296 1.59872 9.55554 1.99575L10.6667 7.42511C10.7222 7.8314 10.713 8.19151 10.6389 8.50544C10.5648 8.81941 10.4166 9.08719 10.1944 9.3088L6.06942 13.4639C6.73608 14.6182 7.46525 15.7054 8.25692 16.7257C9.04858 17.746 9.92128 18.7179 10.875 19.6413C11.8472 20.6293 12.8704 21.5365 13.9445 22.3629C15.0185 23.1893 16.1482 23.9257 17.3333 24.572L21.2778 20.5554C21.5463 20.2692 21.8681 20.0683 22.2431 19.9529C22.6181 19.8375 22.9908 19.8074 23.3611 19.8629L28.5833 20.9709C28.9908 21.0817 29.3287 21.2964 29.5972 21.6149C29.8657 21.9335 30 22.2913 30 22.6883V28.6717C30 29.1888 29.8241 29.6228 29.4722 29.9737C29.1204 30.3246 28.6852 30.5 28.1667 30.5Z" fill="#959595"/>
<path d="M23.5265 6.87668C25.8421 9.18467 27.0462 11.9991 27.1388 15.32H29.9165C29.8795 13.2794 29.4652 11.3703 28.6735 9.59281C27.8818 7.81536 26.817 6.25949 25.479 4.92522C24.1411 3.59095 22.5809 2.52908 20.7985 1.7396C19.0161 0.950126 17.1017 0.536925 15.0554 0.5V3.27621C18.3873 3.36857 21.2109 4.56873 23.5265 6.87668Z" fill="#C4C4C4"/>
<path d="M18.5971 11.802C19.5693 12.7623 20.1017 13.935 20.1943 15.32H22.9721C22.8795 13.1686 22.0763 11.3426 20.5624 9.84212C19.0485 8.34167 17.2128 7.54528 15.0554 7.45296V10.223C16.4443 10.3153 17.6249 10.8417 18.5971 11.802Z" fill="#C4C4C4"/>
</svg>
